{
  "asset": { "version": "2.0", "generator": "GenerateTestArm.ps1 (custom script, no external libraries)" },
  "scene": 0,
  "scenes": [ { "nodes": [0] } ],
  "nodes": [
    { "name": "ArmMesh", "mesh": 0, "skin": 0, "children": [1] },
    { "name": "Joint0", "children": [2] },
    { "name": "Joint1", "translation": [0.0, 1.0, 0.0] }
  ],
  "meshes": [
    {
      "primitives": [
        {
          "attributes": { "POSITION": 0, "NORMAL": 1, "TEXCOORD_0": 2, "JOINTS_0": 3, "WEIGHTS_0": 4 },
          "indices": 5
        }
      ]
    }
  ],
  "skins": [
    { "joints": [1, 2], "inverseBindMatrices": 8 }
  ],
  "animations": [
    {
      "samplers": [ { "input": 6, "output": 7, "interpolation": "LINEAR" } ],
      "channels": [ { "sampler": 0, "target": { "node": 2, "path": "rotation" } } ]
    }
  ],
  "accessors": [{ "bufferView": 0, "componentType": 5126, "count": 32, "type": "VEC3", "min": [-0.3, 0, -0.3], "max": [0.3, 2, 0.3] },
    { "bufferView": 1, "componentType": 5126, "count": 32, "type": "VEC3" },
    { "bufferView": 2, "componentType": 5126, "count": 32, "type": "VEC2" },
    { "bufferView": 3, "componentType": 5121, "count": 32, "type": "VEC4" },
    { "bufferView": 4, "componentType": 5126, "count": 32, "type": "VEC4" },
    { "bufferView": 5, "componentType": 5123, "count": 48, "type": "SCALAR" },
    { "bufferView": 6, "componentType": 5126, "count": 3, "type": "SCALAR" },
    { "bufferView": 7, "componentType": 5126, "count": 3, "type": "VEC4" },
    { "bufferView": 8, "componentType": 5126, "count": 2, "type": "MAT4" }],
  "bufferViews": [{ "buffer": 0, "byteOffset": 0, "byteLength": 384 },
    { "buffer": 0, "byteOffset": 384, "byteLength": 384 },
    { "buffer": 0, "byteOffset": 768, "byteLength": 256 },
    { "buffer": 0, "byteOffset": 1024, "byteLength": 128 },
    { "buffer": 0, "byteOffset": 1152, "byteLength": 512 },
    { "buffer": 0, "byteOffset": 1664, "byteLength": 96 },
    { "buffer": 0, "byteOffset": 1760, "byteLength": 12 },
    { "buffer": 0, "byteOffset": 1772, "byteLength": 48 },
    { "buffer": 0, "byteOffset": 1820, "byteLength": 128 }],
  "buffers": [ { "byteLength": 1948, "uri": "TestArm_external.bin" } ]
}